<?xml version="1.0" encoding="UTF-8"?>
<!-- Generated by Pixelmator Pro 2.4.3 -->
<svg width="1024" height="1024" viewBox="0 0 1024 1024" xmlns="http://www.w3.org/2000/svg" xmlns:xlink="http://www.w3.org/1999/xlink">
    <path id="Rectangle" fill="#000000" fill-rule="evenodd" stroke="none" d="M 0 1024 L 1024 1024 L 1024 0 L 0 0 Z"/>
    <path id="a" fill="#ffffff" fill-rule="evenodd" stroke="none" d="M 683.42926 590.483032 C 683.42926 606.237 685.595337 617.658447 689.927673 624.747681 C 694.26001 631.836914 701.283569 637.219482 710.998474 640.895386 L 685.398438 722.81543 C 660.717285 720.452271 639.909302 715.00415 622.973816 706.470764 C 606.038391 697.937378 592.713379 685.006226 582.998474 667.67688 C 566.981995 686.844238 546.502197 701.088135 521.558472 710.409241 C 496.614746 719.730347 471.146271 724.390747 445.152313 724.390747 C 402.091583 724.390747 367.761658 712.116028 342.16153 687.566162 C 316.561401 663.016296 303.761536 631.443237 303.761536 592.846191 C 303.761536 547.422363 321.550079 512.370361 357.127686 487.689209 C 392.705292 463.008057 442.78891 450.667664 507.380005 450.667664 L 563.700012 450.667664 L 563.700012 434.913818 C 563.700012 392.115662 536.131042 370.716919 480.99231 370.716919 C 467.601471 370.716919 450.403687 372.620483 429.398468 376.427673 C 408.393219 380.234863 387.388306 385.683044 366.383087 392.772278 L 337.632294 310.064636 C 364.676544 299.824585 392.836273 292.078979 422.112305 286.827698 C 451.388367 281.576355 477.578857 278.950745 500.684601 278.950745 C 562.912598 278.950745 608.926514 291.619385 638.727722 316.956909 C 668.52887 342.294495 683.42926 378.856201 683.42926 426.643066 Z M 488.081543 635.381531 C 501.472382 635.381531 515.519409 631.377441 530.223083 623.369263 C 544.926758 615.360962 556.085632 604.005188 563.700012 589.301514 L 563.700012 521.559998 L 532.97998 521.559998 C 498.32135 521.559998 472.852905 526.876831 456.573853 537.510742 C 440.2948 548.144653 432.155396 563.701416 432.155396 584.181519 C 432.155396 600.197998 437.0784 612.735352 446.924622 621.793823 C 456.770813 630.852356 470.489655 635.381531 488.081543 635.381531 Z"/>
</svg>
